<svg width="640" height="480" viewBox="0 0 640 480" fill="none" xmlns="http://www.w3.org/2000/svg" role="img" aria-label="Signed evidence pack with verify badge">
  <defs><linearGradient id="bg" x1="0" y1="0" x2="640" y2="480" gradientUnits="userSpaceOnUse"><stop offset="0" stop-color="#2455FF"/><stop offset="1" stop-color="#7AA3FF"/></linearGradient><filter id="blur"><feGaussianBlur stdDeviation="30"/></filter></defs>
  <ellipse cx="420" cy="120" rx="160" ry="90" fill="url(#bg)" opacity="0.25" filter="url(#blur)"/>
  <rect x="80" y="80" width="360" height="280" rx="16" fill="#ffffff" stroke="#E6EAF2"/>
  <rect x="110" y="112" width="300" height="16" rx="8" fill="#EEF3FF"/>
  <rect x="110" y="140" width="220" height="10" rx="5" fill="#EEF3FF"/>
  <rect x="110" y="182" width="280" height="40" rx="10" fill="#FBFCFF" stroke="#E6EAF2"/>
  <rect x="110" y="232" width="280" height="40" rx="10" fill="#FBFCFF" stroke="#E6EAF2"/>
  <rect x="110" y="282" width="280" height="40" rx="10" fill="#FBFCFF" stroke="#E6EAF2"/>
  <g transform="translate(460, 210)"><circle cx="60" cy="60" r="60" fill="url(#bg)"/><path d="M48 64l14 14 26-30" stroke="#fff" stroke-width="8" stroke-linecap="round" stroke-linejoin="round"/></g>
  <rect x="380" y="320" width="140" height="96" rx="12" fill="#0F1428"/>
  <path d="M395 336h70v12h-70zm0 24h48v12h-48zm54 0h16v12h-16zm-54 24h70v12h-70z" fill="#A6B1C6"/>
</svg>
